<svg xmlns="http://www.w3.org/2000/svg" width="40" height="40" viewBox="0 0 40 40"><defs><style>.a{fill:#bababa;}</style></defs><path class="a" d="M82.933,104a20,20,0,1,1,20-20A20.023,20.023,0,0,1,82.933,104Zm0-38.1a18.1,18.1,0,1,0,18.1,18.1A18.115,18.115,0,0,0,82.933,65.9Zm.047,29.407a12.927,12.927,0,0,1-10.243-4.993.952.952,0,1,1,1.5-1.173,11.1,11.1,0,0,0,17.543-.073.952.952,0,1,1,1.51,1.16A12.919,12.919,0,0,1,82.98,95.311ZM76.838,83.428A1.428,1.428,0,0,1,75.41,82V79.142a1.429,1.429,0,1,1,2.857,0V82A1.428,1.428,0,0,1,76.838,83.428Zm12.381,0A1.428,1.428,0,0,1,87.79,82V79.142a1.429,1.429,0,1,1,2.857,0V82A1.428,1.428,0,0,1,89.219,83.428Z" transform="translate(-62.933 -64)"/></svg>