<svg xmlns="http://www.w3.org/2000/svg" width="40" height="36.991" viewBox="0 0 40 36.991"><defs><style>.a{fill:#bababa;}</style></defs><path class="a" d="M92.4,94.709a9.654,9.654,0,0,0-13.863,0l-20.371,20.83c-3.616,3.7-3.835,8.184-.792,11.294,2.869,2.933,7.8,2.427,10.994-.842L85.2,108.781a4.757,4.757,0,0,0,0-6.631,4.567,4.567,0,0,0-6.549,0l-14.2,14.523a1.063,1.063,0,0,0,1.521,1.485l14.2-14.523a2.442,2.442,0,0,1,3.511,0,2.64,2.64,0,0,1,0,3.661l-16.832,17.21c-2.427,2.477-6,2.846-7.961.843-2.2-2.25-2.049-5.419.792-8.32L80.058,96.2a7.529,7.529,0,0,1,10.825,0,8.011,8.011,0,0,1,0,11.135L73.108,125.5a1.063,1.063,0,0,0,1.521,1.485L92.4,108.813a10.132,10.132,0,0,0,0-14.1Z" transform="translate(-55.259 -91.775)"/></svg>