<svg xmlns="http://www.w3.org/2000/svg" xmlns:xlink="http://www.w3.org/1999/xlink" width="208" height="225.772" viewBox="0 0 208 225.772"><defs><style>.a{fill:url(#a);}</style><linearGradient id="a" x1="0.5" y1="0.2" x2="0.5" y2="1.288" gradientUnits="objectBoundingBox"><stop offset="0" stop-color="#fe817c"/><stop offset="1" stop-color="#fd6d90"/></linearGradient></defs><path class="a" d="M37.912,224.967a7.483,7.483,0,0,1-2.92-6.513l.632-33.412H25.1c-13.84,0-25.1-14.753-25.1-32.883V32.873C0,14.743,11.264,0,25.1,0H182.9C196.736,0,208,14.743,208,32.873V151.649c0,9.859-3.008,18.689-8.472,24.872-4.9,5.46-11.232,8.491-17.8,8.52H79.824L43.816,224.387a4.608,4.608,0,0,1-5.9.569ZM16,37.4V148.593c0,9.609,5.968,17.42,13.3,17.42H45.28a4.8,4.8,0,0,1,3.792,2,7.322,7.322,0,0,1,1.44,4.755l-2.92,28.049,23.52-33.523a4.62,4.62,0,0,1,3.128-1.279H177.6c5.792,0,14.408-4.765,14.408-17.89V37.4c-.008-9.6-5.976-17.42-13.312-17.42H29.3C21.968,19.978,16,27.8,16,37.4Z"/></svg>