<svg xmlns="http://www.w3.org/2000/svg" width="65.27" height="69.974" viewBox="0 0 65.27 69.974"><defs><style>.a{fill:#89664b;}</style></defs><path class="a" d="M82.482.022h0V0H17.212V21.91h0v.022H27.289V16.84H22.3V5.091h7.571v43.35H62.441V5.091h2.894V48.42h0v.022H69.82V5.091H77.39V16.84H72.4v5.07h0v.022H82.482V.022ZM57.955,43.957H34.36V5.208h23.6Z" transform="translate(-17.212)"/><path class="a" d="M132.191,421.4l-3.4,9.169-1.19,3.191h.008l-.008.022h3l1.155-3.1h3.063l1.1,3.1H138.9L134.349,421.4Zm2.369,7.172h-1.921l-.62-.007,1.295-3.721.951,2.829Z" transform="translate(-112.515 -363.811)"/><path class="a" d="M218.1,422.887h-.022v2.432h0v.022H221.1v9.54h0v.022h2.7V425.34h3.025v-2.453H218.1Z" transform="translate(-190.626 -365.092)"/><path class="a" d="M311.033,426.562l-1.114,2.287-2.88-5.962h-2.583v11.994h0v.022h2.7v-3.219l.019-2.8,1.857,3.66h1.8l.988-1.961.872-1.689v5.986h0v.022h2.7V422.888H312.8Z" transform="translate(-265.199 -365.092)"/><path class="a" d="M180.566,110.519a6.417,6.417,0,0,0,.515,2.4,5.337,5.337,0,0,0,1.439,1.924,6.691,6.691,0,0,0,2.3,1.235,9.315,9.315,0,0,0,1.886.356v1.72h1.546v-1.666a8.031,8.031,0,0,0,2.219-.371,6.586,6.586,0,0,0,2.053-1.1,5.107,5.107,0,0,0,1.386-1.712,4.75,4.75,0,0,0,.507-2.189,4.831,4.831,0,0,0-.318-1.818,4.329,4.329,0,0,0-.879-1.363,5.366,5.366,0,0,0-1.257-.947c-.138-.077-.3-.127-.443-.2-.169-.082-.342-.159-.522-.232-.159-.065-.3-.151-.467-.208q-.738-.25-1.523-.432c-.258-.053-.5-.106-.757-.167V102.5l.007-.344v-.012c1.976.236,2.354,1.349,2.445,2.22l.068.575h3.168l.089.008v-.007h.023l-.023-.674a5.147,5.147,0,0,0-.56-2.257,5.056,5.056,0,0,0-1.424-1.7,6.292,6.292,0,0,0-2.09-1.045,7.975,7.975,0,0,0-1.7-.31V97.27h0v-.022h-1.545v1.674a7.717,7.717,0,0,0-1.833.333,6.316,6.316,0,0,0-1.977,1.015,4.9,4.9,0,0,0-1.326,1.606,4.549,4.549,0,0,0-.477,2.053,4.489,4.489,0,0,0,.356,1.81,3.924,3.924,0,0,0,1.091,1.424,6.313,6.313,0,0,0,1.749,1.008,15.633,15.633,0,0,0,2.4.72c.007.007.007.007.015.007V112.5l0,.725c-.142-.03-.285-.052-.419-.09a3.636,3.636,0,0,1-1.205-.538,2.888,2.888,0,0,1-.825-.887,3,3,0,0,1-.386-1.28l-.053-.591h-3.272ZM186.7,105.4c-.3-.076-.58-.151-.821-.226a3.862,3.862,0,0,1-.954-.409,1.022,1.022,0,0,1-.364-.357,1.357,1.357,0,0,1-.106-.568,1.38,1.38,0,0,1,.667-1.219,3.4,3.4,0,0,1,1.59-.5v2.651l-.006.527Zm4.185,6.682a1.789,1.789,0,0,1-.591.629,3.232,3.232,0,0,1-1.022.439,4.858,4.858,0,0,1-.972.147l-.043,0v-4.059c.25.061.485.121.7.182a5.85,5.85,0,0,1,1.364.538,1.536,1.536,0,0,1,.591.545,1.561,1.561,0,0,1,.174.78A1.59,1.59,0,0,1,190.882,112.087Z" transform="translate(-158.221 -83.957)"/></svg>