<svg xmlns="http://www.w3.org/2000/svg" width="69.974" height="62.041" viewBox="0 0 69.974 62.041"><defs><style>.a{fill:#89664b;}</style></defs><path class="a" d="M164.026,49.213l-41.378-19.99a1.978,1.978,0,0,0-2.646.92l-6.821,14.114-2.943,6.068h.011l-.011.022h5.884l1.07-2.211,4.571,2.211h5.548l4.99.019-.041-.019h.05l-13.122-6.34.72-1.491,16.2,7.831h5.72c.094,0,.184,0,.273,0a.438.438,0,0,1,.087.022l-.043-.021h.052L121.058,40.142l.72-1.5,22.55,10.9-.426.887-.082.161h0l-.01.02a7.283,7.283,0,0,1,2.74,1.423c.066.057.137.106.2.165l0,0,.018.014L147.359,51l9.82,4.75-2.574,5.326-.014.03-3.622-1.751-1.576-.774v.011l-.022-.011v5.1l3.223,1.562-2.581,5.34L150,70.6l-.429-.208-.183-.1v.011l-.022-.011v9.835a1.983,1.983,0,0,0,2.41-1.02l13.172-27.25A1.99,1.99,0,0,0,164.026,49.213Z" transform="translate(-95.173 -29.024)"/><path class="a" d="M46.662,216.363H3.26A3.265,3.265,0,0,0,0,219.624v29.917a3.264,3.264,0,0,0,3.26,3.26h43.4a3.263,3.263,0,0,0,3.26-3.26V219.624A3.264,3.264,0,0,0,46.662,216.363ZM45.32,228.819v.01H4.6v-7.863H45.32Zm0,19.368v.011H4.6V233.048H45.32v15.139Z" transform="translate(0 -190.76)"/><path class="a" d="M200.524,362.8a4.264,4.264,0,0,0-2.739.992,4.28,4.28,0,1,0,0,6.577,4.28,4.28,0,1,0,2.739-7.569Zm0,6.835a2.531,2.531,0,0,1-1.659-.628,4.244,4.244,0,0,0,0-3.852,2.549,2.549,0,1,1,1.659,4.481Z" transform="translate(-164.694 -317.187)"/></svg>