<svg xmlns="http://www.w3.org/2000/svg" width="75.772" height="77.927" viewBox="0 0 75.772 77.927"><defs><style>.a{fill:#89664b;}</style></defs><g transform="translate(-7.08)"><path class="a" d="M77.583,68.758V35.625a7,7,0,0,0,4.633-6.341V17.928l-.363-.773L74.706,1.965A3.421,3.421,0,0,0,71.611,0H18.321a3.421,3.421,0,0,0-3.1,1.965L8.08,17.154l-.363.773V29.284a7,7,0,0,0,4.633,6.341V68.758H7.08v7.161a2.009,2.009,0,0,0,2.009,2.008H80.843a2.009,2.009,0,0,0,2.009-2.008V68.758Zm-7.641-.5H42.387V40.988h0v-.025H24.865v27.3H19.99V35.75a8.242,8.242,0,0,0,1.1-.506,10.366,10.366,0,0,0,9.55,0,10.368,10.368,0,0,0,9.551,0,10.367,10.367,0,0,0,9.551,0,10.366,10.366,0,0,0,9.551,0,10.367,10.367,0,0,0,9.551,0,8.242,8.242,0,0,0,1.1.506V68.262ZM38.76,53.879v.545A1.382,1.382,0,0,1,37.369,55.8H35.623a1.374,1.374,0,0,1-1.39-1.379v-.545a1.377,1.377,0,0,1,1.39-1.391h1.747A1.384,1.384,0,0,1,38.76,53.879ZM68.844,26.5v2.78a2.8,2.8,0,0,1-.1.659c-.029.086-.057.172-.1.258a.693.693,0,0,1-.048.124,3.329,3.329,0,0,1-.965,1.155,5.375,5.375,0,0,1-.458.306,5.976,5.976,0,0,1-2.627.784c-.162.009-.325.019-.487.019s-.325-.01-.487-.019a5.976,5.976,0,0,1-2.627-.784,5.375,5.375,0,0,1-.458-.306,3.327,3.327,0,0,1-.965-1.155.672.672,0,0,1-.047-.124c-.038-.086-.067-.172-.1-.258a1.98,1.98,0,0,1-.067-.325,1.847,1.847,0,0,1-.029-.334v-10.5L56.274,3.821H63.82l5.024,14.966V26.5Zm-19.1,0v2.78a2.447,2.447,0,0,1-.239,1.041.05.05,0,0,0-.019.038,2.666,2.666,0,0,1-.162.277,2.884,2.884,0,0,1-.21.286c-.058.067-.124.143-.182.2a2.2,2.2,0,0,1-.268.249l-.172.143c-.134.1-.267.181-.411.267-.1.058-.181.105-.277.153s-.172.086-.258.124a5.114,5.114,0,0,1-.678.249,1.712,1.712,0,0,1-.21.057,2.637,2.637,0,0,1-.268.067c-.124.028-.249.047-.373.067a6.448,6.448,0,0,1-2.1,0c-.124-.019-.248-.038-.372-.067a2.618,2.618,0,0,1-.268-.067,1.7,1.7,0,0,1-.21-.057,5.147,5.147,0,0,1-.678-.249c-.086-.038-.172-.076-.258-.124s-.181-.1-.277-.153c-.143-.086-.277-.172-.41-.267l-.172-.143A2.223,2.223,0,0,1,41,31.127c-.058-.057-.124-.134-.182-.2a2.82,2.82,0,0,1-.21-.286,2.623,2.623,0,0,1-.162-.277.049.049,0,0,0-.019-.038,2.447,2.447,0,0,1-.239-1.041v-10.5l1-14.966h7.545l1,14.966V26.5ZM33.657,3.825,30.639,18.787v10.5a1.9,1.9,0,0,1-.028.334,1.782,1.782,0,0,1-.067.325,2.642,2.642,0,0,1-.1.258.671.671,0,0,1-.048.124.473.473,0,0,0-.048.1,1.688,1.688,0,0,1-.133.22,3.674,3.674,0,0,1-.888.917,2.759,2.759,0,0,1-.354.229c-.1.058-.181.105-.277.153s-.172.086-.257.124a5.171,5.171,0,0,1-.678.249.857.857,0,0,1-.21.057,4.7,4.7,0,0,1-.64.134c-.115.02-.238.039-.353.048a6.41,6.41,0,0,1-1.395,0c-.114-.009-.238-.028-.353-.048a4.682,4.682,0,0,1-.64-.134,1.708,1.708,0,0,1-.21-.057,5.146,5.146,0,0,1-.678-.249c-.086-.038-.172-.076-.258-.124s-.181-.1-.277-.153a2.711,2.711,0,0,1-.353-.229,3.672,3.672,0,0,1-.889-.917,1.688,1.688,0,0,1-.133-.22.417.417,0,0,0-.048-.1.685.685,0,0,1-.048-.124c-.038-.086-.067-.172-.1-.258a1.805,1.805,0,0,1-.067-.325,1.9,1.9,0,0,1-.028-.334v-10.5L26.112,3.821h6.331Z"/><path class="a" d="M280.936,285.9h-.024v16.309h16.309V285.9H280.936Zm2.39,6.953v-4.539h4.527v4.539h-4.527Zm0,6.942v-4.527h4.527v4.527Zm6.953-6.942v-4.539h4.527v4.539H290.28Zm0,6.942v-4.527h4.527v4.527Z" transform="translate(-232.154 -242.384)"/></g></svg>