<svg xmlns="http://www.w3.org/2000/svg" width="78.206" height="49.546" viewBox="0 0 78.206 49.546"><defs><style>.a{fill:#89664b;}</style></defs><path class="a" d="M249.5,93.7H206.546a2,2,0,0,0-2,2v27.148a2,2,0,0,0,2,2H249.5a2,2,0,0,0,2-2V95.7A2,2,0,0,0,249.5,93.7Zm-3.846,12.085H210.392a.771.771,0,0,1-.771-.769v-.634a.771.771,0,0,1,.771-.771h35.268a.771.771,0,0,1,.769.771v.634A.77.77,0,0,1,245.659,105.784Zm-35.268,6.986h35.268a.771.771,0,0,1,.769.772v.631a.771.771,0,0,1-.769.771H210.392a.771.771,0,0,1-.771-.771v-.631A.772.772,0,0,1,210.392,112.77Z" transform="translate(-173.3 -93.699)"/><path class="a" d="M347.255,347.793a5.385,5.385,0,1,0,5.135,3.767A5.4,5.4,0,0,0,347.255,347.793Z" transform="translate(-289.651 -309.016)"/><path class="a" d="M77.781,174.354v-.024H27.158V148.574a1.133,1.133,0,0,0-1.136-1.133H9.195a3.515,3.515,0,0,0-3.267,2.22L0,164.626V179.64a2.17,2.17,0,0,0,2.169,2.171H6.3a7.634,7.634,0,0,1,1.5-3.166A7.792,7.792,0,0,1,9.3,177.206a7.667,7.667,0,0,1,9.013,0,7.786,7.786,0,0,1,1.506,1.439,7.636,7.636,0,0,1,1.5,3.166H50.089a7.686,7.686,0,0,1,15.028,0h6.556l6.108-3.165v-4.292ZM5.1,164.263l4.839-12.216h9.109v12.225H8.783Z" transform="translate(0 -139.267)"/><path class="a" d="M63.009,348.393a5.361,5.361,0,0,0-4.932,0,5.384,5.384,0,1,0,4.932,0Z" transform="translate(-46.734 -309.016)"/></svg>