<svg xmlns="http://www.w3.org/2000/svg" width="69.974" height="59.223" viewBox="0 0 69.974 59.223"><defs><style>.a{fill:#89664b;}</style></defs><path class="a" d="M58,283.153a6.805,6.805,0,0,0-5.472-5.176l-.027-.006a6.907,6.907,0,0,0-1.113-.094c-.017,0-.033,0-.05,0h-.063c-.119,0-.234-.018-.355-.011h-.05l-3.09.316-1.218.116a5.492,5.492,0,0,0,.187-2.511,5.641,5.641,0,0,0-1.8-3.31l-5.98-5.339a9.963,9.963,0,0,0-8.39-2.39l-11.469,2a5.982,5.982,0,0,0-1.83.62,3.162,3.162,0,0,0-1.675-.913l-.018,0a3.163,3.163,0,0,0-.634-.065l-.011,0-.03,0a3.131,3.131,0,0,0-.452.011l-6.07.939a4.506,4.506,0,0,0-1.95-.8l-.02,0A4.485,4.485,0,0,0,5,266.514l-5,.77v19.408L0,289.7H0v.022l8.39-1.3a4.541,4.541,0,0,0,2.989-1.81l6.07-.95a3.148,3.148,0,0,0,2.03-1.19,5.96,5.96,0,0,0,1.98.07l3.5-.48,6.28,6.62A7.571,7.571,0,0,0,37.361,293l.04-.01,14.539-1.48a6.879,6.879,0,0,0,4.78-2.579,6.956,6.956,0,0,0,1.38-5.279C58.07,283.484,58.04,283.313,58,283.153Zm-6.48,3.7-14.559,1.49a2.882,2.882,0,0,1-2.319-.89l-6.81-7.16a3.183,3.183,0,0,0-2.74-.97l-4.259.58a1.428,1.428,0,0,1-1.05-.28l-1.06-6.84a1.45,1.45,0,0,1,1.19-1.44l11.48-1.99a5.305,5.305,0,0,1,4.46,1.28l5.979,5.33a.9.9,0,0,1,.29.54.869.869,0,0,1-.08.52,2.246,2.246,0,0,1-2.389,1.253c-.043-.007-.085-.012-.128-.021a2.225,2.225,0,0,1-.421-.134c-.021-.009-.039-.022-.06-.031a2.289,2.289,0,0,1-.4-.237l-3.03-2.3a1.138,1.138,0,0,0-1.74.46l-.18.4a1.077,1.077,0,0,0-.08.64,1.158,1.158,0,0,0,.28.59l4.45,4.85a2.831,2.831,0,0,0,2.28.92l10.579-.87a2.153,2.153,0,0,1,2.24,1.66c.01.06.02.11.03.16A2.165,2.165,0,0,1,51.52,286.853ZM15.3,281.263l-3.31.51-1.55-10.019,3.3-.51.31,1.98,1.241,7.98Z" transform="translate(0 -233.807)"/><path class="a" d="M267.759,111.813l-1.713-.237h0l-.022,0-2.449,17.377a.88.88,0,0,1-.984.732l-32.242-4.569-.075-.01h0l-.021,0-.285,2.012a.862.862,0,0,0,.732.973l34.077,4.823a.88.88,0,0,0,.984-.733l2.734-19.378A.86.86,0,0,0,267.759,111.813Z" transform="translate(-198.528 -101.699)"/><path class="a" d="M319.522,97.749l-.218.208-.109.109-.482.481-.138.128-.016.012-.437-.775-.076-.131-.143-.262-1.2-2.133-1.236-.175-.481-.07-.255-.049.008.013-.015,0h-.011l1.389,2.46.033.066h.011l.875,1.553.022.054,0,.009,0,.012-2.37-.334-.01,0h0l-.021,0-.139.982v0h0l0,.022,3.04.427-.164,1.115-2.988-.419-.03,0h0l-.021,0-.138.974v.011h0l0,.021,3.04.426-.361,2.581,1.542.218v-.022l.143-1.006.218-1.553.952.131,1.99.284.1.011.142-.984v-.011L321.1,102l-1.99-.3-.153-.263.131-.875,1.3.186,1.739.24.142-.984V100l-1.509-.219-.2-.028-.645-.167,1.27-1.237.055-.055,1.246-1.225.607-.589.156-.144h-.007l.01-.01v-.011l-1.99-.284Z" transform="translate(-271.255 -87.472)"/><path class="a" d="M204.05,60.439l.853.12,2.592.372,6.583.929,22.637,3.2,1.411.2a.862.862,0,0,0,.973-.732l.164-1.193,1.083-7.655.962-6.725.4-2.854.131-.962a.862.862,0,0,0-.732-.973l-34.077-4.823a.862.862,0,0,0-.973.732l-2.745,19.39A.863.863,0,0,0,204.05,60.439ZM237.394,51.9l-.853,6.07a3.983,3.983,0,0,0-2.023.481,3.844,3.844,0,0,0-.733.514,4,4,0,0,0-1.258,2.013l-5.872-.831-1.542-.219-13.7-1.936-.8-.109a4.087,4.087,0,0,0-2.155-3.686c-.095-.051-.207-.076-.309-.118-.119-.051-.247-.1-.38-.146-.057-.017-.107-.048-.164-.063l1.017-7.229a3.643,3.643,0,0,0,.918-.088,4.025,4.025,0,0,0,2.549-1.728,3.878,3.878,0,0,0,.547-1.2l21.916,3.106a3.961,3.961,0,0,0,.186,1.3,4.048,4.048,0,0,0,2.822,2.712Z" transform="translate(-175.523 -39.335)"/><path class="a" d="M253.586,119.191l-.107-.015h0l-.021,0-.076.6,4.145.59,2.931.415.088-.59v-.011l-2.3-.328Z" transform="translate(-218.753 -108.262)"/><path class="a" d="M382.853,138.073v0h0l0,.022,1.006.142,1.991.285,4.079.58.088-.59V138.5l-7.076-1.006Z" transform="translate(-330.526 -124.081)"/></svg>